<?xml version="1.0" standalone="no"?>
<!DOCTYPE svg PUBLIC "-//W3C//DTD SVG 20010904//EN"
 "http://www.w3.org/TR/2001/REC-SVG-20010904/DTD/svg10.dtd">
<svg version="1.0" xmlns="http://www.w3.org/2000/svg"
 width="960.000000pt" height="960.000000pt" viewBox="0 0 960.000000 960.000000"
 preserveAspectRatio="xMidYMid meet">
<metadata>
Created by potrace 1.11, written by Peter Selinger 2001-2013
</metadata>
<g transform="translate(0.000000,960.000000) scale(0.100000,-0.100000)"
fill="#000000" stroke="none">
<path d="M2996 7883 c-2 -2 -64 -9 -156 -18 -44 -4 -101 -12 -144 -21 -11 -2
-34 -7 -51 -10 -188 -33 -449 -113 -654 -201 -151 -64 -434 -219 -453 -247 -4
-6 -8 -7 -8 -3 0 4 -10 -1 -22 -13 -12 -11 -26 -20 -30 -20 -5 0 -14 -5 -21
-10 -7 -6 -39 -31 -72 -55 -33 -25 -73 -55 -90 -68 -130 -98 -330 -294 -470
-462 -71 -85 -185 -239 -185 -250 0 -3 -8 -15 -18 -26 -11 -10 -25 -32 -33
-47 -8 -15 -16 -29 -19 -32 -23 -23 -189 -358 -233 -470 -39 -100 -98 -277
-112 -336 -2 -10 -9 -39 -16 -64 -6 -25 -12 -53 -14 -63 -2 -10 -6 -26 -9 -35
-6 -20 -13 -58 -22 -127 -3 -27 -7 -52 -9 -55 -3 -5 -12 -82 -24 -209 -9 -90
-7 -428 3 -521 10 -92 16 -137 26 -200 5 -30 12 -73 16 -95 17 -119 139 -530
166 -562 6 -7 7 -13 4 -13 -4 0 -1 -12 7 -28 8 -15 40 -81 72 -147 70 -148
127 -249 218 -385 59 -88 126 -179 147 -200 3 -3 17 -21 32 -41 93 -124 336
-360 503 -488 22 -17 46 -36 53 -41 28 -24 251 -169 307 -200 144 -80 284
-145 425 -200 47 -18 99 -38 117 -46 17 -8 40 -14 50 -14 11 0 23 -3 27 -7 3
-4 12 -8 19 -9 7 -1 64 -16 127 -33 63 -16 131 -33 150 -36 19 -4 70 -13 113
-20 44 -8 82 -14 85 -14 4 1 9 1 12 0 21 -8 167 -21 300 -26 l125 -5 0 3090 0
3090 -118 -2 c-65 -2 -120 -4 -121 -5z"/>
<path d="M6169 7886 c-2 -2 -44 -7 -93 -10 -49 -4 -92 -9 -95 -11 -4 -2 -35
-6 -69 -9 -35 -3 -67 -8 -72 -11 -4 -3 -25 -7 -46 -9 -53 -5 -290 -63 -336
-81 -21 -8 -38 -13 -38 -10 0 3 -13 -1 -29 -9 -15 -8 -39 -17 -52 -20 -33 -6
-250 -95 -266 -108 -7 -6 -13 -8 -13 -5 0 9 -244 -119 -334 -176 -88 -55 -194
-126 -241 -164 -16 -13 -34 -27 -40 -31 -180 -134 -408 -363 -558 -562 -32
-41 -61 -80 -66 -86 -4 -6 -26 -37 -47 -70 -22 -32 -42 -60 -46 -62 -5 -2 -8
-8 -8 -14 0 -5 -8 -22 -18 -36 -71 -101 -257 -494 -277 -582 -2 -8 -11 -32
-19 -52 -9 -21 -16 -40 -16 -43 0 -3 -6 -29 -15 -59 -9 -29 -18 -62 -20 -72
-2 -11 -9 -39 -16 -64 -6 -25 -13 -54 -15 -65 -2 -11 -6 -31 -10 -45 -7 -30
-13 -66 -19 -100 -2 -14 -6 -43 -10 -65 -3 -22 -8 -51 -10 -65 -13 -78 -19
-198 -19 -380 -1 -217 6 -337 28 -460 4 -19 8 -48 11 -65 7 -54 24 -131 50
-236 15 -57 28 -111 30 -119 16 -72 144 -399 167 -427 6 -7 8 -13 4 -13 -14 0
132 -257 223 -393 36 -55 71 -106 76 -115 6 -9 15 -21 20 -28 6 -6 21 -26 35
-43 14 -18 35 -43 48 -56 12 -13 22 -26 22 -29 0 -15 232 -252 339 -346 84
-74 172 -142 286 -221 89 -62 260 -166 260 -159 0 3 14 -4 30 -15 115 -77 562
-253 688 -271 16 -2 33 -6 38 -9 5 -4 17 -8 26 -10 10 -1 54 -11 98 -20 112
-24 98 -21 240 -40 112 -15 184 -18 370 -19 221 -1 337 6 475 28 25 4 59 10
75 12 30 4 63 11 100 19 11 2 49 11 85 19 36 8 92 22 125 32 33 10 65 19 70
20 20 3 245 83 264 93 10 6 21 7 25 4 3 -3 6 -1 6 5 0 7 5 12 12 12 6 0 36 12
67 26 31 14 72 33 91 42 98 45 407 229 446 266 6 6 22 18 34 26 12 8 28 20 34
25 6 6 32 26 58 46 148 113 374 337 482 477 11 15 23 29 26 32 26 23 174 242
254 376 45 77 169 334 169 351 0 7 4 13 9 13 4 0 8 6 8 14 0 7 9 35 19 62 20
51 33 86 36 94 18 57 39 127 41 133 1 4 2 8 4 10 1 1 3 9 5 17 2 8 12 51 24
94 11 44 19 81 16 84 -2 3 0 12 4 21 9 15 18 63 26 126 2 17 6 39 9 51 4 19 8
50 22 174 2 25 6 86 8 135 2 50 5 95 6 100 1 6 2 12 1 15 -1 3 -4 66 -6 140
-6 167 -10 213 -41 405 -23 146 -87 399 -120 472 -8 17 -14 36 -14 41 0 37
-199 471 -230 502 -3 3 -14 21 -24 40 -19 35 -146 229 -166 253 -5 6 -42 53
-82 102 -135 169 -293 328 -453 456 -60 49 -117 94 -125 101 -28 24 -244 164
-305 198 -63 35 -225 116 -285 143 -93 42 -333 130 -390 142 -8 2 -51 13 -95
25 -44 12 -89 24 -100 26 -11 2 -31 6 -45 9 -59 12 -199 35 -245 40 -27 3 -70
8 -95 11 -51 6 -486 14 -491 10z"/>
</g>
</svg>
