<?xml version="1.0" standalone="no"?>
<!DOCTYPE svg PUBLIC "-//W3C//DTD SVG 20010904//EN"
 "http://www.w3.org/TR/2001/REC-SVG-20010904/DTD/svg10.dtd">
<svg version="1.0" xmlns="http://www.w3.org/2000/svg"
 width="612.000000pt" height="612.000000pt" viewBox="0 0 612.000000 612.000000"
 preserveAspectRatio="xMidYMid meet">
<metadata>
Created by potrace 1.14, written by Peter Selinger 2001-2017
</metadata>
<g transform="translate(0.000000,612.000000) scale(0.100000,-0.100000)"
fill="#000000" stroke="none">
<path d="M1031 5909 c-31 -9 -85 -41 -122 -71 -52 -43 -143 -221 -154 -300 -3
-24 -8 -59 -10 -78 -24 -169 -28 -240 -27 -450 0 -113 3 -236 6 -275 3 -38 8
-106 11 -150 10 -127 14 -168 20 -193 3 -12 8 -47 11 -76 2 -29 7 -64 10 -77
2 -13 7 -73 9 -133 3 -59 8 -131 11 -160 9 -73 12 -119 14 -216 3 -104 24
-246 47 -320 19 -60 103 -216 134 -249 10 -11 19 -23 19 -26 0 -7 76 -110 102
-139 42 -47 24 -89 -40 -94 -50 -3 -100 -33 -117 -69 -22 -47 -12 -85 37 -133
38 -37 40 -41 26 -62 -26 -40 -40 -97 -43 -179 -6 -125 -6 -125 -116 -193 -93
-58 -114 -85 -113 -150 0 -29 6 -52 13 -54 6 -2 -5 -20 -28 -42 -63 -62 -66
-131 -8 -193 48 -50 78 -67 169 -92 l83 -22 -3 -59 c-3 -72 20 -116 74 -139
46 -19 68 -19 125 1 l46 17 44 -30 c42 -28 138 -73 187 -88 12 -3 52 -8 88
-10 63 -4 67 -6 106 -50 59 -66 115 -93 207 -100 24 -2 45 -6 48 -8 2 -3 6
-45 7 -95 4 -100 18 -132 66 -152 35 -14 94 -8 135 14 29 15 31 15 56 -12 14
-15 45 -38 67 -52 37 -22 42 -29 42 -65 2 -88 9 -142 25 -190 49 -142 158
-260 301 -326 27 -12 72 -46 99 -74 45 -46 105 -93 105 -81 0 3 15 0 33 -5
101 -30 314 -27 407 6 46 16 114 61 149 99 14 14 29 26 34 26 4 0 41 16 81 35
162 78 245 216 265 441 1 6 14 17 31 24 49 20 141 136 123 154 -13 12 16 5 68
-17 58 -25 70 -25 137 0 61 21 84 84 54 146 -12 26 -11 28 15 38 31 13 77 36
138 69 41 22 165 143 165 161 0 5 9 18 19 28 16 16 26 18 53 11 46 -13 114
-15 168 -7 49 8 108 53 126 96 7 17 20 25 44 28 87 9 178 42 250 89 22 15 56
26 82 28 141 11 254 105 216 179 -8 15 -3 25 21 49 17 17 31 35 32 42 0 6 2
19 4 30 2 10 -1 29 -6 43 -10 26 -95 113 -111 113 -19 0 -104 96 -132 150 -16
30 -40 70 -54 89 -24 33 -25 34 -7 47 10 8 15 14 11 14 -5 0 -3 7 5 16 16 19
13 85 -4 96 -7 4 -8 8 -4 8 4 0 -22 30 -58 68 -67 67 -105 126 -105 160 0 10
-5 23 -12 30 -12 12 -8 15 45 27 16 3 39 17 52 31 46 50 35 105 -43 208 -67
88 -70 131 -17 235 73 146 160 396 170 491 2 19 6 58 9 85 4 28 9 75 12 105 3
30 7 69 9 85 4 28 10 102 20 250 3 33 7 83 10 110 2 28 7 82 10 120 3 39 8 86
10 105 2 19 6 69 10 110 3 41 8 95 10 120 18 209 21 326 11 440 -5 59 -9 85
-23 160 -10 58 -74 222 -93 240 -3 3 -10 16 -17 30 -37 82 -144 158 -234 164
-176 12 -356 -136 -547 -449 -34 -55 -65 -105 -69 -110 -4 -6 -33 -48 -64 -95
-51 -77 -138 -186 -222 -280 -18 -20 -57 -65 -87 -100 -53 -62 -308 -317 -380
-379 -57 -50 -115 -73 -188 -76 -37 -2 -85 -5 -107 -9 -22 -3 -58 -8 -80 -10
-22 -3 -58 -8 -80 -12 -75 -12 -110 -11 -200 8 -82 16 -256 24 -340 15 -46 -5
-163 20 -200 43 -56 35 -226 219 -335 365 -57 77 -108 142 -112 143 -4 2 -8 8
-8 13 0 5 -7 17 -15 26 -8 10 -60 77 -116 148 -55 72 -112 141 -125 156 -13
14 -24 30 -24 36 0 6 -4 13 -8 15 -5 2 -31 37 -59 78 -28 42 -58 82 -67 89 -9
7 -16 20 -16 27 0 8 -3 14 -8 14 -4 0 -28 28 -52 62 -58 80 -206 230 -245 247
-16 7 -37 17 -46 22 -28 13 -122 18 -158 8z"/>
</g>
</svg>
