<svg xmlns="http://www.w3.org/2000/svg" width="165" height="36" fill="none" viewBox="0 0 165 36">
  <path fill="none" d="M5.592 13.504C5.976 12.88 6.528 12.376 7.248 11.992 7.968 11.608 8.792 11.416 9.72 11.416 10.824 11.416 11.824 11.696 12.72 12.256 13.616 12.816 14.32 13.616 14.832 14.656 15.36 15.696 15.624 16.904 15.624 18.28 15.624 19.656 15.36 20.872 14.832 21.928 14.32 22.968 13.616 23.776 12.72 24.352 11.824 24.912 10.824 25.192 9.72 25.192 8.776 25.192 7.952 25.008 7.248 24.64 6.544 24.256 5.992 23.752 5.592 23.128V25H1.488V7.24H5.592V13.504zM11.448 18.28C11.448 17.256 11.16 16.456 10.584 15.88 10.024 15.288 9.328 14.992 8.496 14.992 7.68 14.992 6.984 15.288 6.408 15.88 5.848 16.472 5.568 17.28 5.568 18.304 5.568 19.328 5.848 20.136 6.408 20.728 6.984 21.32 7.68 21.616 8.496 21.616 9.312 21.616 10.008 21.32 10.584 20.728 11.16 20.12 11.448 19.304 11.448 18.28zM16.9611 18.28C16.9611 16.904 17.2171 15.696 17.7291 14.656 18.2571 13.616 18.9691 12.816 19.8651 12.256 20.7611 11.696 21.7611 11.416 22.8651 11.416 23.8091 11.416 24.6331 11.608 25.3371 11.992 26.0571 12.376 26.6091 12.88 26.9931 13.504V11.608H31.0971V25H26.9931V23.104C26.5931 23.728 26.0331 24.232 25.3131 24.616 24.6091 25 23.7851 25.192 22.8411 25.192 21.7531 25.192 20.7611 24.912 19.8651 24.352 18.9691 23.776 18.2571 22.968 17.7291 21.928 17.2171 20.872 16.9611 19.656 16.9611 18.28zM26.9931 18.304C26.9931 17.28 26.7051 16.472 26.1291 15.88 25.5691 15.288 24.8811 14.992 24.0651 14.992 23.2491 14.992 22.5531 15.288 21.9771 15.88 21.4171 16.456 21.1371 17.256 21.1371 18.28 21.1371 19.304 21.4171 20.12 21.9771 20.728 22.5531 21.32 23.2491 21.616 24.0651 21.616 24.8811 21.616 25.5691 21.32 26.1291 20.728 26.7051 20.136 26.9931 19.328 26.9931 18.304zM38.1701 7.24V25H34.0661V7.24H38.1701zM40.3283 18.28C40.3283 16.904 40.5843 15.696 41.0963 14.656 41.6243 13.616 42.3363 12.816 43.2323 12.256 44.1283 11.696 45.1283 11.416 46.2323 11.416 47.1763 11.416 48.0003 11.608 48.7043 11.992 49.4243 12.376 49.9763 12.88 50.3603 13.504V11.608H54.4643V25H50.3603V23.104C49.9603 23.728 49.4003 24.232 48.6803 24.616 47.9763 25 47.1523 25.192 46.2083 25.192 45.1203 25.192 44.1283 24.912 43.2323 24.352 42.3363 23.776 41.6243 22.968 41.0963 21.928 40.5843 20.872 40.3283 19.656 40.3283 18.28zM50.3603 18.304C50.3603 17.28 50.0723 16.472 49.4963 15.88 48.9363 15.288 48.2483 14.992 47.4323 14.992 46.6163 14.992 45.9203 15.288 45.3443 15.88 44.7843 16.456 44.5043 17.256 44.5043 18.28 44.5043 19.304 44.7843 20.12 45.3443 20.728 45.9203 21.32 46.6163 21.616 47.4323 21.616 48.2483 21.616 48.9363 21.32 49.4963 20.728 50.0723 20.136 50.3603 19.328 50.3603 18.304zM65.5933 11.464C67.1613 11.464 68.4093 11.976 69.3373 13 70.2813 14.008 70.7533 15.4 70.7533 17.176V25H66.6733V17.728C66.6733 16.832 66.4413 16.136 65.9773 15.64 65.5133 15.144 64.8893 14.896 64.1053 14.896 63.3213 14.896 62.6973 15.144 62.2333 15.64 61.7693 16.136 61.5373 16.832 61.5373 17.728V25H57.4333V11.608H61.5373V13.384C61.9533 12.792 62.5133 12.328 63.2173 11.992 63.9213 11.64 64.7133 11.464 65.5933 11.464zM72.7892 18.304C72.7892 16.912 73.0692 15.696 73.6292 14.656 74.2052 13.616 74.9972 12.816 76.0052 12.256 77.0292 11.696 78.1972 11.416 79.5092 11.416 81.1892 11.416 82.5892 11.856 83.7092 12.736 84.8452 13.616 85.5892 14.856 85.9412 16.456H81.5732C81.2052 15.432 80.4932 14.92 79.4372 14.92 78.6852 14.92 78.0852 15.216 77.6372 15.808 77.1892 16.384 76.9652 17.216 76.9652 18.304 76.9652 19.392 77.1892 20.232 77.6372 20.824 78.0852 21.4 78.6852 21.688 79.4372 21.688 80.4932 21.688 81.2052 21.176 81.5732 20.152H85.9412C85.5892 21.72 84.8452 22.952 83.7092 23.848 82.5732 24.744 81.1732 25.192 79.5092 25.192 78.1972 25.192 77.0292 24.912 76.0052 24.352 74.9972 23.792 74.2052 22.992 73.6292 21.952 73.0692 20.912 72.7892 19.696 72.7892 18.304zM100.76 18.064C100.76 18.432 100.736 18.824 100.688 19.24H91.4004C91.4644 20.088 91.7284 20.736 92.1924 21.184 92.6564 21.632 93.2404 21.856 93.9444 21.856 94.9684 21.856 95.6804 21.424 96.0804 20.56H100.448C100.224 21.44 99.8164 22.232 99.2244 22.936 98.6484 23.64 97.9204 24.192 97.0404 24.592 96.1604 24.992 95.1764 25.192 94.0884 25.192 92.7764 25.192 91.6084 24.912 90.5844 24.352 89.5604 23.792 88.7604 22.992 88.1844 21.952 87.6084 20.912 87.3204 19.696 87.3204 18.304 87.3204 16.912 87.6004 15.696 88.1604 14.656 88.7364 13.616 89.5364 12.816 90.5604 12.256 91.5844 11.696 92.7604 11.416 94.0884 11.416 95.3844 11.416 96.5364 11.688 97.5444 12.232 98.5524 12.776 99.3364 13.552 99.8964 14.56 100.472 15.568 100.76 16.736 100.76 18.064zM96.5604 17.152C96.5604 16.384 96.3204 15.784 95.8404 15.352 95.3604 14.92 94.7604 14.704 94.0404 14.704 93.3364 14.704 92.7444 14.92 92.2644 15.352 91.8004 15.768 91.5124 16.368 91.4004 17.152H96.5604zM112 18.5C112 28.165 119.897 36 129.639 36V1C119.897 1 112 8.83502 112 18.5z"/>
  <ellipse cx="147.361" cy="18.5" fill="none" rx="17.6388" ry="17.5"/>
</svg>
