<svg xmlns="http://www.w3.org/2000/svg" fill="none" viewBox="0 0 24 20">
  <path fill="#000" d="M8.954 19.846c-1.038 0-2.106-.084-3.181-.253-1.893-.297-3.809-1.287-4.351-1.583L0 17.232l1.54-.506c1.682-.553 2.706-.897 3.973-1.434-1.268-.615-2.246-1.72-2.717-3.15l-.358-1.086.293.044a5.34 5.34 0 01-.669-.824c-.606-.921-.927-2.046-.858-3.01l.067-.95.568.22a5.311 5.311 0 01-.515-1.442c-.248-1.236-.04-2.548.585-3.696l.495-.909.662.795C5.16 3.8 7.811 5.291 10.958 5.727c-.129-.886-.032-1.74.287-2.507.37-.893 1.031-1.65 1.909-2.189A5.734 5.734 0 0116.48.214c1.243.076 2.371.542 3.267 1.347.438-.113.76-.235 1.196-.399.262-.098.56-.21.932-.339l1.37-.472-.893 2.553c.059-.004.12-.009.183-.011L24 2.826l-.865 1.183c-.05.068-.063.087-.08.113-.07.106-.157.236-1.345 1.822a2.238 2.238 0 00-.418 1.457c.106 2.061-.147 3.926-.752 5.542a9.807 9.807 0 01-2.632 3.9c-1.455 1.31-3.309 2.207-5.512 2.665-1.08.225-2.241.338-3.442.338z"/>
</svg>
